#!OML:ASF H:\Terrain\Patient Classification 1\Animal1\Tuesday\Animal1.ASF
:FULLY-SPECIFIED
:DEGREES
2688
root 12.3104 15.3348 -13.7032 47.5247 -37.155 -9.72186
lowerback 31.0633 -1.28222 3.70276
upperback 4.48021 -0.00685146 5.0205
thorax -11.2284 -0.183164 3.3876
lowerneck 6.18684 2.68557 -8.58067
upperneck -33.2723 4.80078 9.02081
head -12.4077 1.87594 4.47398
rclavicle -1.98785e-015 -1.45113e-013
rhumerus -54.6151 20.9664 -96.2549
rradius 93.0844
rwrist -5.40218
rhand -33.5043 50.2263
rfingers 7.12502
rthumb -6.70107 20.3523
lclavicle -1.98785e-015 -1.45113e-013
lhumerus -44.3702 -5.53606 93.2416
lradius 70.816
lwrist -42.8387
lhand -24.896 44.0482
lfingers 7.12502
lthumb 1.61201 74.0219
rfemur -73.7909 15.0133 23.7781
rtibia 40.9569
rfoot -9.59056 0.663255
rtoes -4.67247
lfemur -65.616 16.4267 -11.4975
ltibia 54.9949
lfoot -25.3608 23.5417
ltoes -2.75638
2689
root 12.3067 15.3352 -13.7031 47.6754 -37.1626 -9.66642
lowerback 31.3379 -1.1615 3.72648
upperback 4.47346 0.161211 4.94693
thorax -11.3549 -0.110404 3.2383
lowerneck 5.96672 2.72701 -8.02809
upperneck -33.9451 4.83813 8.47867
head -12.6216 1.88077 4.18682
rclavicle -3.77691e-014 -5.32743e-014
rhumerus -55.0222 20.7177 -96.2509
rradius 93.7777
rwrist -5.37248
rhand -33.7979 50.3929
rfingers 7.12502
rthumb -6.98444 20.5282
lclavicle -3.77691e-014 -5.32743e-014
lhumerus -44.8637 -5.95469 93.2719
lradius 71.5381
lwrist -42.9656
lhand -24.9365 43.7519
lfingers 7.12502
lthumb 1.57286 73.7259
rfemur -74.0067 15.013 23.6624
rtibia 40.9799
rfoot -9.41098 0.695415
rtoes -3.59767
lfemur -65.8426 16.2841 -11.486
ltibia 55.091
lfoot -25.1078 23.9109
ltoes -3.63195
2690
root 12.3027 15.3324 -13.7049 47.9408 -37.0394 -9.74965
lowerback 31.5657 -1.23269 3.69934
upperback 4.51786 0.0837114 5.04045
thorax -11.4003 -0.145653 3.38654
lowerneck 5.81903 2.98227 -7.86327
upperneck -34.6845 5.14166 8.00154
head -12.9272 2.04586 3.96215
rclavicle -3.02153e-014 -2.94201e-014
rhumerus -55.1413 20.7462 -96.373
rradius 94.028
rwrist -4.89543
rhand -33.9217 50.4306
rfingers 7.12502
rthumb -7.10398 20.5698
lclavicle -3.02153e-014 -2.94201e-014
lhumerus -45.4324 -5.65739 93.2398
lradius 72.5715
lwrist -43.0701
lhand -24.754 43.7047
lfingers 7.12502
lthumb 1.74912 73.6772
rfemur -74.2392 15.0623 23.6913
rtibia 40.9721
rfoot -9.42048 0.554469
rtoes -4.34039
lfemur -66.1267 16.1947 -11.3018
ltibia 55.2419
lfoot -25.2447 23.8605
ltoes -3.21206
2691
root 12.3001 15.3269 -13.7096 48.2636 -36.9013 -9.79761
lowerback 31.754 -1.29037 3.53256
upperback 4.44861 -0.00544123 5.19299
thorax -11.5603 -0.177706 3.68084
lowerneck 6.16529 3.30924 -8.0009
upperneck -35.6088 5.55299 7.74808
head -13.4572 2.26279 3.86926
rclavicle -3.81667e-014 1.61016e-014
rhumerus -55.6831 20.8694 -96.7181
rradius 94.4068
rwrist -4.43223
rhand -33.889 50.5925
rfingers 7.12502
rthumb -7.07242 20.7306
lclavicle -3.81667e-014 1.61016e-014
lhumerus -46.1999 -5.15833 93.2733
lradius 73.564
lwrist -43.1727
lhand -24.8695 43.7157
lfingers 7.12502
lthumb 1.63759 73.6892
rfemur -74.5448 15.094 23.6785
rtibia 40.8899
rfoot -9.54599 0.529756
rtoes -4.96079
lfemur -66.5597 16.1123 -11.1683
ltibia 55.4407
lfoot -25.7074 23.5635
ltoes -1.74476
2692
root 12.2992 15.3169 -13.7126 48.6172 -36.7745 -9.87256
lowerback 31.9037 -1.31938 3.44631
upperback 4.35641 -0.0330505 5.34334
thorax -11.7309 -0.184329 3.90662
lowerneck 6.67735 3.58237 -8.19457
upperneck -36.6765 5.86102 7.48961
head -14.0979 2.43773 3.79889
rclavicle 6.12257e-014 1.0138e-014
rhumerus -56.1351 21.4843 -96.5637
rradius 94.9525
rwrist -4.76638
rhand -33.8773 50.7227
rfingers 7.12502
rthumb -7.06116 20.8605
lclavicle 6.12257e-014 1.0138e-014
lhumerus -47.0714 -4.66151 93.3961
lradius 74.4645
lwrist -43.3254
lhand -25.3814 43.9717
lfingers 7.12502
lthumb 1.14318 73.9484
rfemur -74.8899 15.1225 23.6695
rtibia 40.8332
rfoot -9.44732 0.647148
rtoes -3.70256
lfemur -67.0221 16.0391 -11.02
ltibia 55.6272
lfoot -25.8955 23.5109
ltoes -0.927585
2693
root 12.2913 15.3122 -13.6985 48.9475 -36.9685 -10.375
lowerback 32.1879 -1.189 3.41008
upperback 4.4372 0.128804 5.38443
thorax -11.7664 -0.114575 3.91252
lowerneck 6.97391 3.78403 -7.91016
upperneck -37.5916 6.03832 6.88644
head -14.5887 2.53643 3.50495
rclavicle -4.37326e-014 -7.27552e-014
rhumerus -56.5025 21.5656 -96.598
rradius 95.4133
rwrist -4.57064
rhand -33.9473 51.0497
rfingers 7.12502
rthumb -7.12871 21.1898
lclavicle -4.37326e-014 -7.27552e-014
lhumerus -47.8195 -4.31348 93.4897
lradius 75.3087
lwrist -43.5257
lhand -25.5785 44.1457
lfingers 7.12502
lthumb 0.952849 74.1233
rfemur -74.8147 15.4764 23.9146
rtibia 40.8198
rfoot -9.31424 0.75521
rtoes -3.34105
lfemur -66.929 16.4637 -10.8206
ltibia 55.803
lfoot -25.8585 23.7123
ltoes -1.71545
2694
root 12.2933 15.3039 -13.6965 49.0439 -36.9947 -10.2678
lowerback 32.4768 -1.1946 3.24636
upperback 4.49402 0.0840597 5.42763
thorax -11.8234 -0.129894 4.0697
lowerneck 6.99297 3.96998 -7.56741
upperneck -38.3064 6.1835 6.2135
head -14.9181 2.62725 3.16326
rclavicle -1.47896e-013 -1.98785e-014
rhumerus -56.7979 21.5547 -96.6284
rradius 95.9163
rwrist -4.20321
rhand -34.0023 51.7047
rfingers 7.12502
rthumb -7.18183 21.8465
lclavicle -1.47896e-013 -1.98785e-014
lhumerus -48.2501 -3.95239 93.5797
lradius 75.9966
lwrist -43.6983
lhand -24.5264 42.9877
lfingers 7.12502
lthumb 1.969 72.9584
rfemur -75.0508 15.3961 23.8102
rtibia 40.8859
rfoot -9.42791 0.551973
rtoes -5.69723
lfemur -67.1719 16.4079 -10.986
ltibia 55.9459
lfoot -25.7622 24.0143
ltoes -3.2752
2695
root 12.303 15.2901 -13.7122 49.0995 -36.6234 -9.78154
lowerback 32.6371 -1.36363 3.15299
upperback 4.48644 -0.124588 5.5886
thorax -11.8929 -0.216745 4.38001
lowerneck 6.93533 4.16068 -7.66819
upperneck -38.7991 6.34452 5.83597
head -15.1583 2.7573 3.01317
rclavicle -1.11319e-014 2.24627e-014
rhumerus -57.1201 21.633 -96.5581
rradius 96.4784
rwrist -3.91065
rhand -34.2565 52.1844
rfingers 7.12502
rthumb -7.4272 22.3348
lclavicle -1.11319e-014 2.24627e-014
lhumerus -48.508 -3.59934 93.7184
lradius 76.4952
lwrist -43.5091
lhand -23.3869 41.0613
lfingers 7.12502
lthumb 3.06944 71.0189
rfemur -75.6166 14.9166 23.66
rtibia 41.0081
rfoot -9.56188 0.346115
rtoes -7.3384
lfemur -67.8922 15.9533 -11.1685
ltibia 56.0589
lfoot -25.1415 24.3008
ltoes -4.95022
2696
root 12.3077 15.2749 -13.719 49.604 -36.5111 -9.80564
lowerback 32.3928 -1.35953 3.03518
upperback 4.50902 -0.155191 5.74124
thorax -11.7712 -0.223532 4.61447
lowerneck 6.88389 4.29677 -7.87231
upperneck -39.0622 6.46306 5.66218
head -15.2957 2.86075 2.96589
rclavicle 1.66979e-014 1.61016e-014
rhumerus -57.526 21.7009 -96.5797
rradius 96.9105
rwrist -3.58258
rhand -34.7605 52.5232
rfingers 7.12502
rthumb -7.91359 22.6913
lclavicle 1.66979e-014 1.61016e-014
lhumerus -48.8623 -3.35092 93.883
lradius 76.877
lwrist -43.0589
lhand -23.9808 40.7353
lfingers 7.12502
lthumb 2.49592 70.7004
rfemur -76.2529 14.7648 23.811
rtibia 41.1777
rfoot -9.64043 0.611824
rtoes -6.95632
lfemur -68.6204 16.0209 -11.2274
ltibia 56.203
lfoot -24.5066 24.397
ltoes -5.58748
